<svg xmlns="http://www.w3.org/2000/svg" version="1.1" desc="Created with imagetracer.js version 1.2.6" viewBox="0 0 512 512" preserveAspectRatio="xMidYMid meet"><path fill="rgb(0,0,0)" stroke="rgb(0,0,0)" stroke-width="1" opacity="0" d="M 0 0 L 0.5 0 L 511.5 0 L 512 0 L 512 0.5 L 512 511.5 L 512 512 L 511.5 512 L 0.5 512 L 0 512 L 0 511.5 L 0 0.5 L 0 0 Z M 143 107 L 142 108 L 136 108 L 135 109 L 130 109 L 129 110 L 127 110 L 126 111 L 124 111 L 122 113 L 120 113 L 118 115 L 117 115 L 113 119 Q 111 119 111 119 Q 111 119 111 121 L 106 126 L 106 127 L 103 130 L 103 131 L 102 132 L 102 133 L 101 134 L 101 135 L 100 136 L 100 138 L 99 139 L 99 141 L 98 142 L 98 146 L 97 147 L 97 399 L 98 400 L 98 403 L 99 404 L 99 405 L 100 406 L 100 407 L 101 408 L 101 409 L 107 414 L 108 414 L 110 416 L 111 416 L 112 417 L 113 417 L 114 418 L 117 418 L 118 419 L 122 419 L 123 420 L 125 420 L 126 419 L 129 419 L 130 418 L 133 418 L 135 416 L 137 416 L 175 378 L 176 378 L 178 376 L 179 376 L 180 375 L 387 375 L 388 374 L 390 374 L 391 373 L 394 373 L 395 372 L 396 372 L 397 371 L 399 371 L 401 369 L 402 369 L 404 367 L 405 367 L 407 365 Q 408 365 408 365 Q 408 365 408 364 L 408 363 Q 408 363 410 363 L 412 361 L 412 360 L 416 356 L 416 355 L 418 353 L 418 351 L 420 349 L 420 347 L 421 346 L 421 344 L 422 343 L 422 339 L 423 338 L 423 333 L 424 332 L 424 152 L 423 151 L 423 146 L 422 145 L 422 140 L 421 139 L 421 138 L 420 137 L 420 135 L 418 133 L 418 131 L 416 129 L 416 128 L 413 125 L 413 124 L 409 119 L 408 119 L 404 115 L 403 115 L 401 113 L 400 113 L 399 112 L 398 112 L 397 111 L 396 111 L 395 110 L 393 110 L 392 109 L 386 109 L 385 108 L 379 108 L 378 107 L 143 107 Z "/><path fill="rgb(0,0,0)" stroke="rgb(0,0,0)" stroke-width="1" opacity="0" d="M 140.5 138 L 379.5 138 L 380.5 139 L 383.5 139 L 384.5 140 L 385.5 140 L 387.5 142 L 388.5 142 L 391 144.5 L 391 145.5 L 392 146.5 L 392 147.5 L 393 148.5 L 393 333.5 L 392 334.5 L 392 335.5 L 391 336.5 L 391 337.5 L 386.5 342 L 385.5 342 L 384.5 343 L 383.5 343 L 382.5 344 L 183.5 344 L 182.5 345 L 177.5 345 L 176.5 346 L 171.5 346 L 170.5 347 L 168.5 347 L 167.5 348 L 165.5 348 L 164.5 349 L 163.5 349 L 161.5 351 L 160.5 351 L 159.5 352 L 158.5 352 L 152.5 358 Q 151.3 358 151 358 L 151 358.5 Q 151 359.8 151 360 L 150.5 360 Q 149.3 360 149 360 L 149 360.5 Q 149 361.8 149 362 L 148.5 362 Q 147.3 362 147 362 L 147 362.5 Q 147 363.8 147 364 L 146.5 364 Q 145.3 364 145 364 L 145 364.5 Q 145 365.8 145 366 L 144.5 366 Q 143.3 366 143 366 L 143 366.5 Q 143 367.8 143 368 L 142.5 368 Q 141.3 368 141 368 L 141 368.5 Q 141 369.8 141 370 L 140.5 370 Q 139.3 370 139 370 L 139 370.5 Q 139 371.8 139 372 Q 138.8 372 137.5 372 L 128.5 381 L 127 379.5 L 127 150.5 L 128 149.5 L 128 147.5 L 129 146.5 L 129 145.5 L 131 143.5 Q 131 142.3 131 142 Q 131.3 142 132.5 142 L 134.5 140 L 135.5 140 L 136.5 139 L 139.5 139 L 140.5 138 Z M 258 167 L 257 168 L 254 168 L 252 170 L 251 170 L 248 173 L 248 174 L 247 175 L 247 176 L 246 177 L 246 178 L 245 179 L 245 246 L 246 247 L 246 248 L 247 249 L 247 250 L 253 255 L 255 255 L 256 256 L 258 256 L 259 257 L 262 257 L 263 256 L 265 256 L 266 255 L 268 255 L 270 253 Q 271 253 271 253 Q 271 253 271 252 L 274 249 L 274 247 L 275 246 L 275 178 L 274 177 L 274 176 L 273 175 L 273 174 L 269 169 L 268 169 L 267 168 L 265 168 L 264 167 L 258 167 Z M 259 285 L 258 286 L 256 286 L 255 287 L 253 287 L 247 293 L 247 294 L 246 295 L 246 296 L 245 297 L 245 305 L 246 306 L 246 307 L 247 308 L 247 309 L 253 314 L 254 314 L 255 315 L 257 315 L 258 316 L 264 316 L 265 315 L 266 315 L 267 314 L 269 314 L 273 310 L 273 309 L 274 308 L 274 307 L 275 306 L 275 303 L 276 302 L 276 300 L 275 299 L 275 296 L 274 295 L 274 294 L 272 292 L 272 291 L 270 288 L 269 288 L 268 287 L 267 287 L 266 286 L 263 286 L 262 285 L 259 285 Z "/><path fill="rgb(43,127,255)" stroke="rgb(43,127,255)" stroke-width="1" opacity="1" d="M 134 110 L 134.5 110 L 385.5 110 L 386 110 L 386 110.5 Q 386 111.8 386 112 L 386.5 112 L 393.5 112 L 394 112 L 394 112.5 Q 394 113.8 394 114 L 394.5 114 L 397.5 114 L 398 114 L 398 114.5 Q 398 115.8 398 116 L 398.5 116 L 400.5 116 L 402.5 118 Q 403.8 118 404 118 L 404 118.5 Q 404 119.8 404 120 L 404.5 120 Q 405.8 120 406 120 L 406 120.5 Q 406 121.8 406 122 L 406.5 122 Q 407.8 122 408 122 L 408 122.5 Q 408 123.8 408 124 L 408.5 124 Q 409.8 124 410 124 L 410 124.5 L 410 126.5 L 410 127 L 410.5 127 Q 411.8 127 412 127 L 412 127.5 Q 412 128.8 412 129 L 412.5 129 Q 413.8 129 414 129 L 414 129.5 L 414 132.5 L 414 133 L 414.5 133 L 416.5 133 L 417 133 L 417 133.5 L 417 136.5 L 417 137 L 417.5 137 Q 418.8 137 419 137 L 419 137.5 L 419 142.5 L 419 143 L 419.5 143 Q 420.8 143 421 143 L 421 143.5 L 421 338.5 L 421 339 L 420.5 339 Q 419.3 339 419 339 L 419 339.5 L 419 344.5 L 419 345 L 418.5 345 Q 417.3 345 417 345 L 417 345.5 L 417 348.5 L 417 349 L 416.5 349 L 414.5 349 L 414 349 L 414 349.5 L 414 352.5 L 414 353 L 413.5 353 Q 412.3 353 412 353 L 412 353.5 L 412 355.5 L 412 356 L 411.5 356 Q 410.3 356 410 356 L 410 356.5 Q 410 357.8 410 358 L 409.5 358 Q 408.3 358 408 358 L 408 358.5 L 408 360.5 L 408 361 L 407.5 361 L 404.5 361 L 404 361 L 404 361.5 Q 404 362.8 404 363 L 403.5 363 Q 402.3 363 402 363 L 402 363.5 L 402 365.5 L 402 366 L 401.5 366 L 398.5 366 L 398 366 L 398 366.5 Q 398 367.8 398 368 Q 397.8 368 396.5 368 L 394.5 370 L 390.5 370 L 390 370 L 390 370.5 Q 390 371.8 390 372 L 389.5 372 L 181.5 372 L 181 372 L 181 372.5 Q 181 373.8 181 374 L 180.5 374 L 175.5 374 L 175 374 L 175 374.5 Q 175 375.8 175 376 L 174.5 376 L 171.5 376 L 171 376 L 171 376.5 Q 171 377.8 171 378 L 170.5 378 Q 169.3 378 169 378 L 169 378.5 Q 169 379.8 169 380 L 168.5 380 Q 167.3 380 167 380 L 167 380.5 Q 167 381.8 167 382 L 166.5 382 L 164.5 382 L 164 382 L 164 382.5 Q 164 383.8 164 384 L 163.5 384 Q 162.3 384 162 384 L 162 384.5 Q 162 385.8 162 386 L 161.5 386 Q 160.3 386 160 386 L 160 386.5 Q 160 387.8 160 388 L 159.5 388 Q 158.3 388 158 388 L 158 388.5 Q 158 389.8 158 390 L 157.5 390 Q 156.3 390 156 390 L 156 390.5 Q 156 391.8 156 392 L 155.5 392 Q 154.3 392 154 392 L 154 392.5 Q 154 393.8 154 394 L 153.5 394 Q 152.3 394 152 394 L 152 394.5 Q 152 395.8 152 396 L 151.5 396 Q 150.3 396 150 396 L 150 396.5 Q 150 397.8 150 398 L 149.5 398 Q 148.3 398 148 398 L 148 398.5 Q 148 399.8 148 400 L 147.5 400 Q 146.3 400 146 400 L 146 400.5 Q 146 401.8 146 402 L 145.5 402 Q 144.3 402 144 402 L 144 402.5 Q 144 403.8 144 404 L 143.5 404 Q 142.3 404 142 404 L 142 404.5 Q 142 405.8 142 406 L 141.5 406 Q 140.3 406 140 406 L 140 406.5 Q 140 407.8 140 408 L 139.5 408 Q 138.3 408 138 408 L 138 408.5 Q 138 409.8 138 410 L 137.5 410 Q 136.3 410 136 410 L 136 410.5 Q 136 411.8 136 412 L 135.5 412 Q 134.3 412 134 412 L 134 412.5 Q 134 413.8 134 414 L 133.5 414 L 130.5 414 L 130 414 L 130 414.5 Q 130 415.8 130 416 L 129.5 416 L 116.5 416 L 116 416 L 116 415.5 Q 116 414.3 116 414 L 115.5 414 L 112.5 414 L 112 414 L 112 413.5 Q 112 412.3 112 412 L 111.5 412 L 108.5 412 L 108 412 L 108 411.5 Q 108 410.3 108 410 L 107.5 410 Q 106.3 410 106 410 L 106 409.5 Q 106 408.3 106 408 L 105.5 408 Q 104.3 408 104 408 L 104 407.5 Q 104 406.3 104 406 L 103.5 406 Q 102.3 406 102 406 L 102 405.5 L 102 400.5 L 102 400 L 101.5 400 Q 100.3 400 100 400 L 100 399.5 L 100 143.5 L 100 143 L 100.5 143 Q 101.8 143 102 143 L 102 142.5 L 102 137.5 L 102 137 L 102.5 137 Q 103.8 137 104 137 L 104 136.5 L 104 133.5 L 104 133 L 104.5 133 Q 105.8 133 106 133 L 106 132.5 L 106 129.5 L 106 129 L 106.5 129 Q 107.8 129 108 129 Q 108 128.8 108 127.5 L 108 127 L 108.5 127 Q 109.8 127 110 127 L 110 126.5 L 110 124.5 L 110 124 L 110.5 124 Q 111.8 124 112 124 L 112 123.5 Q 112 122.3 112 122 L 112.5 122 Q 113.8 122 114 122 L 114 121.5 Q 114 120.3 114 120 L 114.5 120 Q 115.8 120 116 120 L 116 119.5 Q 116 118.3 116 118 Q 116.3 118 117.5 118 L 119.5 116 L 121.5 116 L 122 116 L 122 115.5 Q 122 114.3 122 114 L 122.5 114 L 125.5 114 L 126 114 L 126 113.5 Q 126 112.3 126 112 L 126.5 112 L 133.5 112 L 134 112 L 134 111.5 Q 134 110.3 134 110 Z M 134 136 Q 134 136 134 138 L 134 138 L 134 138 L 131 138 L 130 138 Q 130 138 130 140 L 130 140 Q 130 140 129 140 L 128 140 L 128 141 L 128 143 L 126 145 L 126 150 L 124 152 L 124 384 L 124 384 L 125 384 L 130 384 L 130 384 Q 130 384 130 383 L 130 382 Q 130 382 132 382 L 132 382 Q 132 382 132 381 L 132 380 Q 132 380 134 380 L 134 380 Q 134 380 134 379 L 134 378 Q 134 378 136 378 L 136 378 Q 136 378 136 377 L 136 376 Q 136 376 138 376 L 138 376 Q 138 376 138 375 L 138 374 Q 138 374 140 374 L 140 374 Q 140 374 140 373 L 140 372 L 141 372 L 143 372 L 143 372 Q 143 372 143 371 L 143 370 Q 143 370 145 370 L 145 370 Q 145 370 145 369 L 145 368 Q 145 368 147 368 L 147 368 Q 147 368 147 367 L 147 366 Q 147 366 149 366 L 149 366 Q 149 366 149 365 L 149 364 Q 149 364 151 364 L 151 364 Q 151 364 151 363 L 151 362 Q 151 362 153 362 L 153 362 Q 153 362 153 361 L 153 360 Q 153 360 155 360 L 155 360 Q 155 360 155 359 L 155 358 Q 155 358 157 358 L 159 356 L 161 356 L 161 356 Q 161 356 161 355 L 161 354 Q 161 354 163 354 L 163 354 Q 163 354 163 353 L 163 352 L 164 352 L 167 352 L 167 352 Q 167 352 167 351 L 167 350 L 168 350 L 173 350 L 173 350 Q 173 350 173 349 L 173 348 L 174 348 L 382 348 L 382 348 Q 382 348 382 347 L 382 346 L 383 346 L 388 346 L 388 346 Q 388 346 388 345 L 388 344 Q 388 344 390 344 L 390 344 Q 390 344 390 343 L 390 342 Q 390 342 392 342 L 392 342 L 392 342 L 392 340 L 392 339 L 393 339 L 395 339 L 395 339 L 395 339 L 395 335 L 395 334 Q 395 334 397 334 L 397 334 L 397 334 L 397 152 L 395 150 L 395 145 L 395 144 Q 395 144 394 144 L 392 143 L 392 141 L 392 140 Q 392 140 391 140 L 390 140 Q 390 140 390 139 L 390 138 L 390 138 L 387 138 L 386 138 Q 386 138 386 137 L 386 136 L 386 136 L 135 136 L 134 136 Z "/><path fill="rgb(43,127,255)" stroke="rgb(43,127,255)" stroke-width="1" opacity="1" d="M 258 169 L 258.5 169 L 261.5 169 L 262 169 L 262 169.5 Q 262 170.8 262 171 L 262.5 171 L 265.5 171 L 266 171 L 266 171.5 Q 266 172.8 266 173 L 266.5 173 L 269.5 173 L 270 173 L 270 173.5 L 270 176.5 L 270 177 L 270.5 177 Q 271.8 177 272 177 L 272 177.5 L 272 245.5 L 272 246 L 271.5 246 Q 270.3 246 270 246 L 270 246.5 L 270 249.5 L 270 250 L 269.5 250 Q 268.3 250 268 250 L 268 250.5 Q 268 251.8 268 252 L 267.5 252 L 264.5 252 L 264 252 L 264 252.5 Q 264 253.8 264 254 L 263.5 254 L 256.5 254 L 256 254 L 256 253.5 Q 256 252.3 256 252 L 255.5 252 L 252.5 252 L 252 252 L 252 251.5 Q 252 250.3 252 250 L 251.5 250 Q 250.3 250 250 250 L 250 249.5 L 250 246.5 L 250 246 L 249.5 246 Q 248.3 246 248 246 L 248 245.5 L 248 177.5 L 248 177 L 248.5 177 Q 249.8 177 250 177 L 250 176.5 L 250 173.5 L 250 173 L 250.5 173 L 253.5 173 L 254 173 L 254 172.5 Q 254 171.3 254 171 L 254.5 171 L 257.5 171 L 258 171 L 258 170.5 Q 258 169.3 258 169 Z "/><path fill="rgb(43,127,255)" stroke="rgb(43,127,255)" stroke-width="1" opacity="1" d="M 254 289 L 254.5 289 L 265.5 289 L 266 289 L 266 289.5 Q 266 290.8 266 291 L 266.5 291 Q 267.8 291 268 291 L 268 291.5 Q 268 292.8 268 293 L 268.5 293 Q 269.8 293 270 293 L 270 293.5 Q 270 294.8 270 295 L 270.5 295 Q 271.8 295 272 295 L 272 295.5 L 272 306.5 L 272 307 L 271.5 307 Q 270.3 307 270 307 L 270 307.5 Q 270 308.8 270 309 L 269.5 309 Q 268.3 309 268 309 L 268 309.5 Q 268 310.8 268 311 L 267.5 311 Q 266.3 311 266 311 L 266 311.5 Q 266 312.8 266 313 L 265.5 313 L 256.5 313 L 254.5 311 L 252.5 311 L 252 311 L 252 310.5 Q 252 309.3 252 309 L 251.5 309 Q 250.3 309 250 309 L 250 308.5 Q 250 307.3 250 307 L 249.5 307 Q 248.3 307 248 307 L 248 306.5 L 248 295.5 L 248 295 L 248.5 295 Q 249.8 295 250 295 L 250 294.5 Q 250 293.3 250 293 L 250.5 293 Q 251.8 293 252 293 L 252 292.5 Q 252 291.3 252 291 L 252.5 291 Q 253.8 291 254 291 L 254 290.5 Q 254 289.3 254 289 Z "/><path fill="rgb(35,106,215)" stroke="rgb(35,106,215)" stroke-width="1" opacity="1" d="M 142.5 107 L 377.5 107 L 378.5 108 L 384.5 108 L 385.5 109 L 391.5 109 L 392.5 110 L 394.5 110 L 395.5 111 L 396.5 111 L 397.5 112 L 398.5 112 L 399.5 113 L 400.5 113 L 402.5 115 L 403.5 115 L 407.5 119 L 408.5 119 L 413 123.5 L 413 124.5 L 416 127.5 L 416 128.5 L 418 130.5 L 418 132.5 L 420 134.5 L 420 136.5 L 421 137.5 L 421 138.5 L 422 139.5 L 422 144.5 L 423 145.5 L 423 150.5 L 424 151.5 L 424 331.5 L 423 332.5 L 423 337.5 L 422 338.5 L 422 342.5 L 421 343.5 L 421 345.5 L 420 346.5 L 420 348.5 L 418 350.5 L 418 352.5 L 416 354.5 L 416 355.5 L 412 359.5 L 412 360.5 L 409.5 363 Q 408.3 363 408 363 L 408 363.5 Q 408 364.8 408 365 Q 407.8 365 406.5 365 L 404.5 367 L 403.5 367 L 401.5 369 L 400.5 369 L 398.5 371 L 396.5 371 L 395.5 372 L 394.5 372 L 393.5 373 L 390.5 373 L 389.5 374 L 387.5 374 L 386.5 375 L 179.5 375 L 178.5 376 L 177.5 376 L 175.5 378 L 174.5 378 L 136.5 416 L 134.5 416 L 132.5 418 L 129.5 418 L 128.5 419 L 125.5 419 L 124.5 420 L 122.5 420 L 121.5 419 L 117.5 419 L 116.5 418 L 113.5 418 L 112.5 417 L 111.5 417 L 110.5 416 L 109.5 416 L 107.5 414 L 106.5 414 L 101 408.5 L 101 407.5 L 100 406.5 L 100 405.5 L 99 404.5 L 99 403.5 L 98 402.5 L 98 399.5 L 97 398.5 L 97 146.5 L 98 145.5 L 98 141.5 L 99 140.5 L 99 138.5 L 100 137.5 L 100 135.5 L 101 134.5 L 101 133.5 L 102 132.5 L 102 131.5 L 103 130.5 L 103 129.5 L 106 126.5 L 106 125.5 L 111 120.5 Q 111 119.3 111 119 Q 111.3 119 112.5 119 L 116.5 115 L 117.5 115 L 119.5 113 L 121.5 113 L 123.5 111 L 125.5 111 L 126.5 110 L 128.5 110 L 129.5 109 L 134.5 109 L 135.5 108 L 141.5 108 L 142.5 107 Z M 140 109 L 139 110 L 132 110 L 131 111 L 129 111 L 128 112 L 125 112 L 123 114 L 121 114 L 119 116 Q 117 116 117 116 Q 117 116 117 118 L 117 118 Q 117 118 116 118 L 107 127 L 107 128 L 105 130 L 105 131 L 103 133 L 103 134 L 102 135 L 102 136 L 101 137 L 101 140 L 100 141 L 100 142 L 99 143 L 99 402 L 101 404 L 101 406 L 103 408 L 103 409 L 108 413 L 109 413 L 111 415 L 113 415 L 115 417 L 121 417 L 122 418 L 126 418 L 127 417 L 132 417 L 134 415 L 136 415 L 138 413 Q 139 413 139 413 Q 139 413 139 412 L 139 411 Q 139 411 141 411 L 141 411 Q 141 411 141 410 L 141 409 Q 141 409 143 409 L 143 409 Q 143 409 143 408 L 143 407 Q 143 407 145 407 L 145 407 Q 145 407 145 406 L 145 405 Q 145 405 147 405 L 147 405 Q 147 405 147 404 L 147 403 Q 147 403 149 403 L 149 403 Q 149 403 149 402 L 149 401 Q 149 401 151 401 L 151 401 Q 151 401 151 400 L 151 399 Q 151 399 153 399 L 153 399 Q 153 399 153 398 L 153 397 Q 153 397 155 397 L 155 397 Q 155 397 155 396 L 155 395 Q 155 395 157 395 L 157 395 Q 157 395 157 394 L 157 393 Q 157 393 159 393 L 159 393 Q 159 393 159 392 L 162 389 Q 163 389 163 389 Q 163 389 163 388 L 174 377 L 175 377 L 177 375 L 178 375 L 179 374 L 184 374 L 185 373 L 387 373 L 388 372 L 392 372 L 393 371 L 394 371 L 395 370 L 397 370 L 399 368 L 401 368 L 403 366 L 404 366 L 406 364 Q 407 364 407 364 Q 407 364 407 363 L 407 362 Q 407 362 409 362 L 411 360 Q 411 358 411 358 Q 411 358 413 358 L 413 358 Q 413 358 413 357 L 415 355 L 415 353 L 415 352 Q 415 352 417 352 L 417 352 L 417 352 L 417 350 L 419 348 L 419 344 L 421 342 L 421 333 L 422 332 L 422 152 L 421 151 L 421 142 L 420 141 L 420 140 L 419 139 L 419 136 L 417 134 L 417 132 L 417 131 Q 417 131 416 131 L 415 131 L 415 131 L 415 129 L 411 125 L 411 124 L 408 120 L 407 120 L 403 116 L 402 116 L 400 114 L 399 114 L 398 113 L 397 113 L 396 112 L 393 112 L 392 111 L 390 111 L 389 110 L 382 110 L 381 109 L 140 109 Z "/><path fill="rgb(35,106,215)" stroke="rgb(35,106,215)" stroke-width="1" opacity="1" d="M 137.5 137 L 383.5 137 L 385.5 139 L 386.5 139 L 388.5 141 L 389.5 141 L 392 143.5 L 392 144.5 L 394 146.5 L 394 335.5 L 392 337.5 L 392 338.5 L 387.5 343 L 386.5 343 L 384.5 345 L 379.5 345 L 378.5 346 L 183.5 346 L 182.5 347 L 172.5 347 L 171.5 348 L 170.5 348 L 169.5 349 L 166.5 349 L 164.5 351 L 162.5 351 L 160.5 353 L 159.5 353 L 155.5 357 Q 154.3 357 154 357 L 154 357.5 Q 154 358.8 154 359 L 153.5 359 Q 152.3 359 152 359 L 152 359.5 Q 152 360.8 152 361 L 151.5 361 Q 150.3 361 150 361 L 150 361.5 Q 150 362.8 150 363 L 149.5 363 Q 148.3 363 148 363 L 148 363.5 Q 148 364.8 148 365 L 147.5 365 Q 146.3 365 146 365 L 146 365.5 Q 146 366.8 146 367 L 145.5 367 Q 144.3 367 144 367 L 144 367.5 Q 144 368.8 144 369 L 143.5 369 Q 142.3 369 142 369 L 142 369.5 Q 142 370.8 142 371 L 141.5 371 Q 140.3 371 140 371 L 140 371.5 Q 140 372.8 140 373 L 139.5 373 Q 138.3 373 138 373 L 138 373.5 Q 138 374.8 138 375 L 137.5 375 Q 136.3 375 136 375 L 136 375.5 Q 136 376.8 136 377 L 135.5 377 Q 134.3 377 134 377 L 134 377.5 Q 134 378.8 134 379 L 133.5 379 Q 132.3 379 132 379 L 132 379.5 Q 132 380.8 132 381 L 131.5 381 Q 130.3 381 130 381 Q 130 381.3 130 382.5 L 128.5 384 L 126 381.5 L 126 151.5 L 126.5 151 L 127 151.5 L 127 379.5 L 128.5 381 L 137.5 372 Q 138.8 372 139 372 L 139 371.5 Q 139 370.3 139 370 L 139.5 370 Q 140.8 370 141 370 L 141 369.5 Q 141 368.3 141 368 L 141.5 368 Q 142.8 368 143 368 L 143 367.5 Q 143 366.3 143 366 L 143.5 366 Q 144.8 366 145 366 L 145 365.5 Q 145 364.3 145 364 L 145.5 364 Q 146.8 364 147 364 L 147 363.5 Q 147 362.3 147 362 L 147.5 362 Q 148.8 362 149 362 L 149 361.5 Q 149 360.3 149 360 L 149.5 360 Q 150.8 360 151 360 L 151 359.5 Q 151 358.3 151 358 Q 151.3 358 152.5 358 L 158.5 352 L 159.5 352 L 160.5 351 L 161.5 351 L 163.5 349 L 164.5 349 L 165.5 348 L 167.5 348 L 168.5 347 L 170.5 347 L 171.5 346 L 176.5 346 L 177.5 345 L 182.5 345 L 183.5 344 L 382.5 344 L 383.5 343 L 384.5 343 L 385.5 342 L 386.5 342 L 391 337.5 L 391 336.5 L 392 335.5 L 392 334.5 L 393 333.5 L 393 148.5 L 392 147.5 L 392 146.5 L 391 145.5 L 391 144.5 L 388.5 142 L 387.5 142 L 385.5 140 L 384.5 140 L 383.5 139 L 380.5 139 L 379.5 138 L 140.5 138 L 139.5 139 L 136.5 139 L 135.5 140 L 134.5 140 L 132.5 142 Q 131.3 142 131 142 Q 131 142.3 131 143.5 L 129 145.5 L 129 146.5 L 128 147.5 L 128 149.5 L 127.5 150 L 127 149.5 L 127 145.5 L 127 145 L 127.5 145 Q 128.8 145 129 145 Q 129 144.8 129 143.5 L 133.5 139 L 134.5 139 L 135.5 138 L 136.5 138 L 137.5 137 Z "/><path fill="rgb(35,106,215)" stroke="rgb(35,106,215)" stroke-width="1" opacity="1" d="M 257.5 167 L 263.5 167 L 264.5 168 L 266.5 168 L 267.5 169 L 268.5 169 L 273 173.5 L 273 174.5 L 274 175.5 L 274 176.5 L 275 177.5 L 275 245.5 L 274 246.5 L 274 248.5 L 271 251.5 Q 271 252.8 271 253 Q 270.8 253 269.5 253 L 267.5 255 L 265.5 255 L 264.5 256 L 262.5 256 L 261.5 257 L 258.5 257 L 257.5 256 L 255.5 256 L 254.5 255 L 252.5 255 L 247 249.5 L 247 248.5 L 246 247.5 L 246 246.5 L 245 245.5 L 245 178.5 L 246 177.5 L 246 176.5 L 247 175.5 L 247 174.5 L 248 173.5 L 248 172.5 L 250.5 170 L 251.5 170 L 253.5 168 L 256.5 168 L 257.5 167 Z M 256 169 L 255 170 L 254 170 L 253 171 L 252 171 L 250 173 L 250 174 L 248 176 L 248 177 L 247 178 L 247 182 L 246 183 L 246 242 L 247 243 L 247 246 L 248 247 L 248 249 L 253 253 L 254 253 L 255 254 L 256 254 L 257 255 L 265 255 L 266 254 L 267 254 L 268 253 Q 269 253 269 253 Q 269 253 269 252 L 269 251 Q 269 251 271 251 L 271 251 Q 271 251 271 250 L 273 248 L 273 245 L 274 244 L 274 181 L 273 180 L 273 176 L 273 175 Q 273 175 272 175 L 271 175 Q 271 175 271 174 L 268 170 L 266 170 L 265 169 L 256 169 Z "/><path fill="rgb(35,106,215)" stroke="rgb(35,106,215)" stroke-width="1" opacity="1" d="M 258.5 285 L 261.5 285 L 262.5 286 L 265.5 286 L 266.5 287 L 267.5 287 L 268.5 288 L 269.5 288 L 272 290.5 L 272 291.5 L 274 293.5 L 274 294.5 L 275 295.5 L 275 298.5 L 276 299.5 L 276 301.5 L 275 302.5 L 275 305.5 L 274 306.5 L 274 307.5 L 273 308.5 L 273 309.5 L 268.5 314 L 266.5 314 L 265.5 315 L 264.5 315 L 263.5 316 L 257.5 316 L 256.5 315 L 254.5 315 L 253.5 314 L 252.5 314 L 247 308.5 L 247 307.5 L 246 306.5 L 246 305.5 L 245 304.5 L 245 296.5 L 246 295.5 L 246 294.5 L 247 293.5 L 247 292.5 L 252.5 287 L 254.5 287 L 255.5 286 L 257.5 286 L 258.5 285 Z M 258 287 L 257 288 L 254 288 L 248 294 L 248 296 L 247 297 L 247 300 L 246 301 L 247 302 L 247 306 L 248 307 L 248 308 L 254 313 L 255 313 L 256 314 L 265 314 L 266 313 L 267 313 L 268 312 L 269 312 L 271 310 L 271 309 L 273 307 L 273 305 L 274 304 L 274 299 L 273 298 L 273 295 L 271 293 L 271 292 L 270 290 L 269 290 L 267 288 L 265 288 L 264 287 L 258 287 Z "/><path fill="rgb(37,111,227)" stroke="rgb(37,111,227)" stroke-width="1" opacity="1" d="M 141.5 109 L 378.5 109 L 379 109.5 L 378.5 110 L 141.5 110 Q 140.5 109.5 141.5 109 Z "/><path fill="rgb(37,111,227)" stroke="rgb(37,111,227)" stroke-width="1" opacity="1" d="M 131.5 110 L 132 110.5 L 130.5 112 Q 129.3 112.3 129 111.5 Q 129.3 110.8 130.5 111 L 131.5 110 Z "/><path fill="rgb(37,111,227)" stroke="rgb(37,111,227)" stroke-width="1" opacity="1" d="M 388.5 110 L 389.5 111 Q 390.8 110.8 391 111.5 Q 390.8 112.3 389.5 112 L 388 110.5 L 388.5 110 Z "/><path fill="rgb(37,111,227)" stroke="rgb(37,111,227)" stroke-width="1" opacity="1" d="M 124.5 112 L 125 112.5 L 123.5 114 L 123 113.5 L 124.5 112 Z "/><path fill="rgb(37,111,227)" stroke="rgb(37,111,227)" stroke-width="1" opacity="1" d="M 395.5 112 L 397 113.5 L 396.5 114 L 395 112.5 L 395.5 112 Z "/><path fill="rgb(37,111,227)" stroke="rgb(37,111,227)" stroke-width="1" opacity="1" d="M 121.5 114 Q 122.5 114.5 121.5 115 Q 120.5 114.5 121.5 114 Z "/><path fill="rgb(37,111,227)" stroke="rgb(37,111,227)" stroke-width="1" opacity="1" d="M 399.5 114 L 401 115.5 L 400.5 116 L 399 114.5 L 399.5 114 Z "/><path fill="rgb(37,111,227)" stroke="rgb(37,111,227)" stroke-width="1" opacity="1" d="M 119.5 115 Q 120.5 115.5 119.5 116 Q 118.5 115.5 119.5 115 Z "/><path fill="rgb(37,111,227)" stroke="rgb(37,111,227)" stroke-width="1" opacity="1" d="M 402.5 116 L 404 117.5 L 403.5 118 L 402 116.5 L 402.5 116 Z "/><path fill="rgb(37,111,227)" stroke="rgb(37,111,227)" stroke-width="1" opacity="1" d="M 115.5 118 L 116 118.5 L 114.5 120 L 114 119.5 L 115.5 118 Z "/><path fill="rgb(37,111,227)" stroke="rgb(37,111,227)" stroke-width="1" opacity="1" d="M 405.5 119 Q 406.5 119.5 405.5 120 Q 404.5 119.5 405.5 119 Z "/><path fill="rgb(37,111,227)" stroke="rgb(37,111,227)" stroke-width="1" opacity="1" d="M 112.5 121 Q 113.5 121.5 112.5 122 Q 111.5 121.5 112.5 121 Z "/><path fill="rgb(37,111,227)" stroke="rgb(37,111,227)" stroke-width="1" opacity="1" d="M 407.5 121 Q 408.5 121.5 407.5 122 Q 406.5 121.5 407.5 121 Z "/><path fill="rgb(37,111,227)" stroke="rgb(37,111,227)" stroke-width="1" opacity="1" d="M 409.5 122 L 411 123.5 L 410.5 124 L 409 122.5 L 409.5 122 Z "/><path fill="rgb(37,111,227)" stroke="rgb(37,111,227)" stroke-width="1" opacity="1" d="M 110.5 123 L 111 123.5 L 107.5 127 L 107 126.5 L 110.5 123 Z "/><path fill="rgb(37,111,227)" stroke="rgb(37,111,227)" stroke-width="1" opacity="1" d="M 411.5 125 Q 412.5 125.5 411.5 126 Q 410.5 125.5 411.5 125 Z "/><path fill="rgb(37,111,227)" stroke="rgb(37,111,227)" stroke-width="1" opacity="1" d="M 413.5 127 Q 414.5 127.5 413.5 128 Q 412.5 127.5 413.5 127 Z "/><path fill="rgb(37,111,227)" stroke="rgb(37,111,227)" stroke-width="1" opacity="1" d="M 105.5 129 Q 106.3 129.3 106 130.5 L 104 132.5 L 104 133.5 L 102.5 135 L 102 134.5 L 103 133.5 L 103 132.5 L 105 130.5 Q 104.8 129.3 105.5 129 Z "/><path fill="rgb(37,111,227)" stroke="rgb(37,111,227)" stroke-width="1" opacity="1" d="M 415.5 131 Q 416.5 131.5 415.5 132 Q 414.5 131.5 415.5 131 Z "/><path fill="rgb(37,111,227)" stroke="rgb(37,111,227)" stroke-width="1" opacity="1" d="M 417.5 134 L 419 135.5 L 418.5 136 L 417 134.5 L 417.5 134 Z "/><path fill="rgb(37,111,227)" stroke="rgb(37,111,227)" stroke-width="1" opacity="1" d="M 101.5 137 Q 102.3 137.3 102 138.5 Q 101.5 139.5 101 138.5 Q 100.8 137.3 101.5 137 Z "/><path fill="rgb(37,111,227)" stroke="rgb(37,111,227)" stroke-width="1" opacity="1" d="M 135.5 137 L 136 137.5 L 134.5 139 L 134 138.5 L 135.5 137 Z "/><path fill="rgb(37,111,227)" stroke="rgb(37,111,227)" stroke-width="1" opacity="1" d="M 384.5 137 L 386 138.5 L 385.5 139 L 384 137.5 L 384.5 137 Z "/><path fill="rgb(37,111,227)" stroke="rgb(37,111,227)" stroke-width="1" opacity="1" d="M 132.5 139 L 133 139.5 L 131.5 141 L 131 140.5 L 132.5 139 Z "/><path fill="rgb(37,111,227)" stroke="rgb(37,111,227)" stroke-width="1" opacity="1" d="M 100.5 140 Q 101.5 140.5 100.5 141 Q 99.5 140.5 100.5 140 Z "/><path fill="rgb(37,111,227)" stroke="rgb(37,111,227)" stroke-width="1" opacity="1" d="M 388.5 140 Q 389.5 140.5 388.5 141 Q 387.5 140.5 388.5 140 Z "/><path fill="rgb(37,111,227)" stroke="rgb(37,111,227)" stroke-width="1" opacity="1" d="M 419.5 140 L 421 141.5 L 420.5 142 L 419 140.5 L 419.5 140 Z "/><path fill="rgb(37,111,227)" stroke="rgb(37,111,227)" stroke-width="1" opacity="1" d="M 390.5 141 L 392 142.5 L 391.5 143 L 390 141.5 L 390.5 141 Z "/><path fill="rgb(37,111,227)" stroke="rgb(37,111,227)" stroke-width="1" opacity="1" d="M 99.5 142 L 100 142.5 L 100 149.5 Q 99.5 150.5 99 149.5 L 99 142.5 L 99.5 142 Z "/><path fill="rgb(37,111,227)" stroke="rgb(37,111,227)" stroke-width="1" opacity="1" d="M 129.5 142 Q 130.5 142.5 129.5 143 Q 128.5 142.5 129.5 142 Z "/><path fill="rgb(37,111,227)" stroke="rgb(37,111,227)" stroke-width="1" opacity="1" d="M 128.5 144 Q 129.5 144.5 128.5 145 Q 127.5 144.5 128.5 144 Z "/><path fill="rgb(37,111,227)" stroke="rgb(37,111,227)" stroke-width="1" opacity="1" d="M 393.5 145 Q 394.5 145.5 393.5 146 Q 392.5 145.5 393.5 145 Z "/><path fill="rgb(37,111,227)" stroke="rgb(37,111,227)" stroke-width="1" opacity="1" d="M 126.5 146 Q 127.3 146.3 127 147.5 Q 126.5 148.5 126 147.5 Q 125.8 146.3 126.5 146 Z "/><path fill="rgb(37,111,227)" stroke="rgb(37,111,227)" stroke-width="1" opacity="1" d="M 125.5 152 L 126 152.5 L 126 381.5 Q 125.5 382.5 125 381.5 L 125 152.5 L 125.5 152 Z "/><path fill="rgb(37,111,227)" stroke="rgb(37,111,227)" stroke-width="1" opacity="1" d="M 394.5 152 L 395 152.5 L 395 329.5 Q 394.5 330.5 394 329.5 L 394 152.5 L 394.5 152 Z "/><path fill="rgb(37,111,227)" stroke="rgb(37,111,227)" stroke-width="1" opacity="1" d="M 421.5 152 L 422 152.5 L 422 329.5 Q 421.5 330.5 421 329.5 L 421 152.5 L 421.5 152 Z "/><path fill="rgb(37,111,227)" stroke="rgb(37,111,227)" stroke-width="1" opacity="1" d="M 255.5 169 L 256 169.5 L 254.5 171 Q 253.3 171.3 253 170.5 Q 253.3 169.8 254.5 170 L 255.5 169 Z "/><path fill="rgb(37,111,227)" stroke="rgb(37,111,227)" stroke-width="1" opacity="1" d="M 266.5 170 Q 267.5 170.5 266.5 171 Q 265.5 170.5 266.5 170 Z "/><path fill="rgb(37,111,227)" stroke="rgb(37,111,227)" stroke-width="1" opacity="1" d="M 269.5 172 Q 270.5 172.5 269.5 173 Q 268.5 172.5 269.5 172 Z "/><path fill="rgb(37,111,227)" stroke="rgb(37,111,227)" stroke-width="1" opacity="1" d="M 249.5 174 L 250 174.5 L 248.5 176 L 248 175.5 L 249.5 174 Z "/><path fill="rgb(37,111,227)" stroke="rgb(37,111,227)" stroke-width="1" opacity="1" d="M 271.5 175 L 273 176.5 L 272.5 177 L 271 175.5 L 271.5 175 Z "/><path fill="rgb(37,111,227)" stroke="rgb(37,111,227)" stroke-width="1" opacity="1" d="M 247.5 178 L 248 178.5 L 248 180.5 Q 247.5 181.5 247 180.5 L 247 178.5 L 247.5 178 Z "/><path fill="rgb(37,111,227)" stroke="rgb(37,111,227)" stroke-width="1" opacity="1" d="M 273.5 181 L 274 181.5 L 274 242.5 Q 273.5 243.5 273 242.5 L 273 181.5 L 273.5 181 Z "/><path fill="rgb(37,111,227)" stroke="rgb(37,111,227)" stroke-width="1" opacity="1" d="M 247.5 243 L 248 243.5 L 248 245.5 Q 247.5 246.5 247 245.5 L 247 243.5 L 247.5 243 Z "/><path fill="rgb(37,111,227)" stroke="rgb(37,111,227)" stroke-width="1" opacity="1" d="M 272.5 247 L 273 247.5 L 271.5 249 L 271 248.5 L 272.5 247 Z "/><path fill="rgb(37,111,227)" stroke="rgb(37,111,227)" stroke-width="1" opacity="1" d="M 248.5 248 L 253 252.5 L 252.5 253 L 248 248.5 L 248.5 248 Z "/><path fill="rgb(37,111,227)" stroke="rgb(37,111,227)" stroke-width="1" opacity="1" d="M 267.5 252 Q 268.5 252.5 267.5 253 Q 266.5 252.5 267.5 252 Z "/><path fill="rgb(37,111,227)" stroke="rgb(37,111,227)" stroke-width="1" opacity="1" d="M 254.5 253 Q 255.5 253.5 254.5 254 Q 253.5 253.5 254.5 253 Z "/><path fill="rgb(37,111,227)" stroke="rgb(37,111,227)" stroke-width="1" opacity="1" d="M 265.5 253 Q 266.5 253.5 265.5 254 Q 264.5 253.5 265.5 253 Z "/><path fill="rgb(37,111,227)" stroke="rgb(37,111,227)" stroke-width="1" opacity="1" d="M 256.5 254 L 263.5 254 L 264 254.5 L 263.5 255 L 256.5 255 Q 255.5 254.5 256.5 254 Z "/><path fill="rgb(37,111,227)" stroke="rgb(37,111,227)" stroke-width="1" opacity="1" d="M 257.5 287 Q 258.8 286.8 259 287.5 Q 258.8 288.3 257.5 288 Q 256.5 287.5 257.5 287 Z "/><path fill="rgb(37,111,227)" stroke="rgb(37,111,227)" stroke-width="1" opacity="1" d="M 261.5 287 Q 262.8 286.8 263 287.5 Q 262.8 288.3 261.5 288 Q 260.5 287.5 261.5 287 Z "/><path fill="rgb(37,111,227)" stroke="rgb(37,111,227)" stroke-width="1" opacity="1" d="M 266.5 288 L 268 289.5 L 267.5 290 L 266 288.5 L 266.5 288 Z "/><path fill="rgb(37,111,227)" stroke="rgb(37,111,227)" stroke-width="1" opacity="1" d="M 251.5 290 L 252 290.5 L 250.5 292 L 250 291.5 L 251.5 290 Z "/><path fill="rgb(37,111,227)" stroke="rgb(37,111,227)" stroke-width="1" opacity="1" d="M 270.5 291 Q 271.5 291.5 270.5 292 Q 269.5 291.5 270.5 291 Z "/><path fill="rgb(37,111,227)" stroke="rgb(37,111,227)" stroke-width="1" opacity="1" d="M 249.5 293 Q 250.5 293.5 249.5 294 Q 248.5 293.5 249.5 293 Z "/><path fill="rgb(37,111,227)" stroke="rgb(37,111,227)" stroke-width="1" opacity="1" d="M 271.5 293 L 273 294.5 L 272.5 295 L 271 293.5 L 271.5 293 Z "/><path fill="rgb(37,111,227)" stroke="rgb(37,111,227)" stroke-width="1" opacity="1" d="M 247.5 296 L 248 296.5 L 248 298.5 Q 247.5 299.5 247 298.5 L 247 296.5 L 247.5 296 Z "/><path fill="rgb(37,111,227)" stroke="rgb(37,111,227)" stroke-width="1" opacity="1" d="M 273.5 298 L 274 298.5 L 274 302.5 Q 273.5 303.5 273 302.5 L 273 298.5 L 273.5 298 Z "/><path fill="rgb(37,111,227)" stroke="rgb(37,111,227)" stroke-width="1" opacity="1" d="M 247.5 302 L 248 302.5 L 248 304.5 Q 247.5 305.5 247 304.5 L 247 302.5 L 247.5 302 Z "/><path fill="rgb(37,111,227)" stroke="rgb(37,111,227)" stroke-width="1" opacity="1" d="M 248.5 307 L 254 312.5 L 253.5 313 L 248 307.5 L 248.5 307 Z "/><path fill="rgb(37,111,227)" stroke="rgb(37,111,227)" stroke-width="1" opacity="1" d="M 271.5 307 Q 272.5 307.5 271.5 308 Q 270.5 307.5 271.5 307 Z "/><path fill="rgb(37,111,227)" stroke="rgb(37,111,227)" stroke-width="1" opacity="1" d="M 270.5 309 Q 271.5 309.5 270.5 310 Q 269.5 309.5 270.5 309 Z "/><path fill="rgb(37,111,227)" stroke="rgb(37,111,227)" stroke-width="1" opacity="1" d="M 267.5 311 Q 268.5 311.5 267.5 312 Q 266.5 311.5 267.5 311 Z "/><path fill="rgb(37,111,227)" stroke="rgb(37,111,227)" stroke-width="1" opacity="1" d="M 256.5 313 L 264.5 313 L 265 313.5 L 264.5 314 L 256.5 314 Q 255.5 313.5 256.5 313 Z "/><path fill="rgb(37,111,227)" stroke="rgb(37,111,227)" stroke-width="1" opacity="1" d="M 392 337 Q 392.3 337 393.5 337 L 394 337.5 L 391.5 340 L 391 339.5 L 392 338.5 Q 392 337.3 392 337 Z "/><path fill="rgb(37,111,227)" stroke="rgb(37,111,227)" stroke-width="1" opacity="1" d="M 389.5 341 L 390 341.5 L 388.5 343 L 388 342.5 L 389.5 341 Z "/><path fill="rgb(37,111,227)" stroke="rgb(37,111,227)" stroke-width="1" opacity="1" d="M 420.5 341 L 421 341.5 L 419.5 343 L 419 342.5 L 420.5 341 Z "/><path fill="rgb(37,111,227)" stroke="rgb(37,111,227)" stroke-width="1" opacity="1" d="M 385.5 344 Q 386.5 344.5 385.5 345 Q 384.5 344.5 385.5 344 Z "/><path fill="rgb(37,111,227)" stroke="rgb(37,111,227)" stroke-width="1" opacity="1" d="M 380.5 345 Q 381.8 344.8 382 345.5 Q 381.8 346.3 380.5 346 Q 379.5 345.5 380.5 345 Z "/><path fill="rgb(37,111,227)" stroke="rgb(37,111,227)" stroke-width="1" opacity="1" d="M 185.5 346 L 378.5 346 L 379 346.5 L 378.5 347 L 185.5 347 Q 184.5 346.5 185.5 346 Z "/><path fill="rgb(37,111,227)" stroke="rgb(37,111,227)" stroke-width="1" opacity="1" d="M 172.5 347 L 173 347.5 L 171.5 349 L 171 348.5 L 172.5 347 Z "/><path fill="rgb(37,111,227)" stroke="rgb(37,111,227)" stroke-width="1" opacity="1" d="M 418.5 347 Q 419.5 347.5 418.5 348 Q 417.5 347.5 418.5 347 Z "/><path fill="rgb(37,111,227)" stroke="rgb(37,111,227)" stroke-width="1" opacity="1" d="M 165.5 350 Q 166.5 350.5 165.5 351 Q 164.5 350.5 165.5 350 Z "/><path fill="rgb(37,111,227)" stroke="rgb(37,111,227)" stroke-width="1" opacity="1" d="M 162.5 351 Q 163.5 351.5 162.5 352 Q 161.5 351.5 162.5 351 Z "/><path fill="rgb(37,111,227)" stroke="rgb(37,111,227)" stroke-width="1" opacity="1" d="M 416.5 351 Q 417.5 351.5 416.5 352 Q 415.5 351.5 416.5 351 Z "/><path fill="rgb(37,111,227)" stroke="rgb(37,111,227)" stroke-width="1" opacity="1" d="M 159.5 353 L 160 353.5 L 157.5 356 L 157 355.5 L 159.5 353 Z "/><path fill="rgb(37,111,227)" stroke="rgb(37,111,227)" stroke-width="1" opacity="1" d="M 414.5 354 L 415 354.5 L 413 356.5 Q 413.3 357.8 412.5 358 Q 411.8 357.8 412 356.5 L 414.5 354 Z "/><path fill="rgb(37,111,227)" stroke="rgb(37,111,227)" stroke-width="1" opacity="1" d="M 154.5 357 Q 155.5 357.5 154.5 358 Q 153.5 357.5 154.5 357 Z "/><path fill="rgb(37,111,227)" stroke="rgb(37,111,227)" stroke-width="1" opacity="1" d="M 410.5 359 Q 411.5 359.5 410.5 360 Q 409.5 359.5 410.5 359 Z "/><path fill="rgb(37,111,227)" stroke="rgb(37,111,227)" stroke-width="1" opacity="1" d="M 150.5 361 Q 151.5 361.5 150.5 362 Q 149.5 361.5 150.5 361 Z "/><path fill="rgb(37,111,227)" stroke="rgb(37,111,227)" stroke-width="1" opacity="1" d="M 148.5 363 Q 149.5 363.5 148.5 364 Q 147.5 363.5 148.5 363 Z "/><path fill="rgb(37,111,227)" stroke="rgb(37,111,227)" stroke-width="1" opacity="1" d="M 404.5 364 L 405 364.5 L 403.5 366 L 403 365.5 L 404.5 364 Z "/><path fill="rgb(37,111,227)" stroke="rgb(37,111,227)" stroke-width="1" opacity="1" d="M 146.5 365 Q 147.5 365.5 146.5 366 Q 145.5 365.5 146.5 365 Z "/><path fill="rgb(37,111,227)" stroke="rgb(37,111,227)" stroke-width="1" opacity="1" d="M 401.5 366 L 402 366.5 L 400.5 368 L 400 367.5 L 401.5 366 Z "/><path fill="rgb(37,111,227)" stroke="rgb(37,111,227)" stroke-width="1" opacity="1" d="M 144.5 367 Q 145.5 367.5 144.5 368 Q 143.5 367.5 144.5 367 Z "/><path fill="rgb(37,111,227)" stroke="rgb(37,111,227)" stroke-width="1" opacity="1" d="M 397.5 368 Q 398.5 368.5 397.5 369 Q 396.5 368.5 397.5 368 Z "/><path fill="rgb(37,111,227)" stroke="rgb(37,111,227)" stroke-width="1" opacity="1" d="M 143.5 369 Q 144.5 369.5 143.5 370 Q 142.5 369.5 143.5 369 Z "/><path fill="rgb(37,111,227)" stroke="rgb(37,111,227)" stroke-width="1" opacity="1" d="M 392.5 370 Q 393.5 370.5 392.5 371 Q 391.5 370.5 392.5 370 Z "/><path fill="rgb(37,111,227)" stroke="rgb(37,111,227)" stroke-width="1" opacity="1" d="M 140.5 371 Q 141.5 371.5 140.5 372 Q 139.5 371.5 140.5 371 Z "/><path fill="rgb(37,111,227)" stroke="rgb(37,111,227)" stroke-width="1" opacity="1" d="M 183.5 372 L 384.5 372 L 385 372.5 L 384.5 373 L 183.5 373 L 182.5 374 L 182 373.5 L 183.5 372 Z "/><path fill="rgb(37,111,227)" stroke="rgb(37,111,227)" stroke-width="1" opacity="1" d="M 139.5 373 Q 140.5 373.5 139.5 374 Q 138.5 373.5 139.5 373 Z "/><path fill="rgb(37,111,227)" stroke="rgb(37,111,227)" stroke-width="1" opacity="1" d="M 176.5 374 L 177 374.5 L 175.5 376 L 175 375.5 L 176.5 374 Z "/><path fill="rgb(37,111,227)" stroke="rgb(37,111,227)" stroke-width="1" opacity="1" d="M 136.5 375 Q 137.8 374.8 138 375.5 Q 137.8 376.3 136.5 376 Q 135.5 375.5 136.5 375 Z "/><path fill="rgb(37,111,227)" stroke="rgb(37,111,227)" stroke-width="1" opacity="1" d="M 173.5 376 Q 174.5 376.5 173.5 377 Q 172.5 376.5 173.5 376 Z "/><path fill="rgb(37,111,227)" stroke="rgb(37,111,227)" stroke-width="1" opacity="1" d="M 134.5 377 Q 135.5 377.5 134.5 378 Q 133.5 377.5 134.5 377 Z "/><path fill="rgb(37,111,227)" stroke="rgb(37,111,227)" stroke-width="1" opacity="1" d="M 171.5 378 Q 172.5 378.5 171.5 379 Q 170.5 378.5 171.5 378 Z "/><path fill="rgb(37,111,227)" stroke="rgb(37,111,227)" stroke-width="1" opacity="1" d="M 133.5 379 Q 134.5 379.5 133.5 380 Q 132.5 379.5 133.5 379 Z "/><path fill="rgb(37,111,227)" stroke="rgb(37,111,227)" stroke-width="1" opacity="1" d="M 169.5 380 Q 170.5 380.5 169.5 381 Q 168.5 380.5 169.5 380 Z "/><path fill="rgb(37,111,227)" stroke="rgb(37,111,227)" stroke-width="1" opacity="1" d="M 130.5 381 Q 131.5 381.5 130.5 382 Q 129.5 381.5 130.5 381 Z "/><path fill="rgb(37,111,227)" stroke="rgb(37,111,227)" stroke-width="1" opacity="1" d="M 167.5 382 Q 168.5 382.5 167.5 383 Q 166.5 382.5 167.5 382 Z "/><path fill="rgb(37,111,227)" stroke="rgb(37,111,227)" stroke-width="1" opacity="1" d="M 127.5 383 Q 128.5 383.5 127.5 384 Q 126.5 383.5 127.5 383 Z "/><path fill="rgb(37,111,227)" stroke="rgb(37,111,227)" stroke-width="1" opacity="1" d="M 129.5 383 Q 130.5 383.5 129.5 384 Q 128.5 383.5 129.5 383 Z "/><path fill="rgb(37,111,227)" stroke="rgb(37,111,227)" stroke-width="1" opacity="1" d="M 165.5 384 Q 166.5 384.5 165.5 385 Q 164.5 384.5 165.5 384 Z "/><path fill="rgb(37,111,227)" stroke="rgb(37,111,227)" stroke-width="1" opacity="1" d="M 163.5 386 Q 164.5 386.5 163.5 387 Q 162.5 386.5 163.5 386 Z "/><path fill="rgb(37,111,227)" stroke="rgb(37,111,227)" stroke-width="1" opacity="1" d="M 161.5 388 Q 162.5 388.5 161.5 389 Q 160.5 388.5 161.5 388 Z "/><path fill="rgb(37,111,227)" stroke="rgb(37,111,227)" stroke-width="1" opacity="1" d="M 159.5 390 Q 160.5 390.5 159.5 391 Q 158.5 390.5 159.5 390 Z "/><path fill="rgb(37,111,227)" stroke="rgb(37,111,227)" stroke-width="1" opacity="1" d="M 157.5 392 Q 158.8 391.8 159 392.5 Q 158.8 393.3 157.5 393 Q 156.5 392.5 157.5 392 Z "/><path fill="rgb(37,111,227)" stroke="rgb(37,111,227)" stroke-width="1" opacity="1" d="M 155.5 394 Q 156.5 394.5 155.5 395 Q 154.5 394.5 155.5 394 Z "/><path fill="rgb(37,111,227)" stroke="rgb(37,111,227)" stroke-width="1" opacity="1" d="M 99.5 396 L 100 396.5 L 100 401.5 Q 99.5 402.5 99 401.5 L 99 396.5 L 99.5 396 Z "/><path fill="rgb(37,111,227)" stroke="rgb(37,111,227)" stroke-width="1" opacity="1" d="M 153.5 396 Q 154.5 396.5 153.5 397 Q 152.5 396.5 153.5 396 Z "/><path fill="rgb(37,111,227)" stroke="rgb(37,111,227)" stroke-width="1" opacity="1" d="M 151.5 398 Q 152.8 397.8 153 398.5 Q 152.8 399.3 151.5 399 Q 150.5 398.5 151.5 398 Z "/><path fill="rgb(37,111,227)" stroke="rgb(37,111,227)" stroke-width="1" opacity="1" d="M 149.5 400 Q 150.5 400.5 149.5 401 Q 148.5 400.5 149.5 400 Z "/><path fill="rgb(37,111,227)" stroke="rgb(37,111,227)" stroke-width="1" opacity="1" d="M 148.5 402 Q 149.5 402.5 148.5 403 Q 147.5 402.5 148.5 402 Z "/><path fill="rgb(37,111,227)" stroke="rgb(37,111,227)" stroke-width="1" opacity="1" d="M 101.5 404 Q 102.3 404.3 102 405.5 Q 101.5 406.5 101 405.5 Q 100.8 404.3 101.5 404 Z "/><path fill="rgb(37,111,227)" stroke="rgb(37,111,227)" stroke-width="1" opacity="1" d="M 146.5 404 Q 147.5 404.5 146.5 405 Q 145.5 404.5 146.5 404 Z "/><path fill="rgb(37,111,227)" stroke="rgb(37,111,227)" stroke-width="1" opacity="1" d="M 144.5 406 Q 145.5 406.5 144.5 407 Q 143.5 406.5 144.5 406 Z "/><path fill="rgb(37,111,227)" stroke="rgb(37,111,227)" stroke-width="1" opacity="1" d="M 103.5 408 Q 104.5 408.5 103.5 409 Q 102.5 408.5 103.5 408 Z "/><path fill="rgb(37,111,227)" stroke="rgb(37,111,227)" stroke-width="1" opacity="1" d="M 142.5 408 Q 143.5 408.5 142.5 409 Q 141.5 408.5 142.5 408 Z "/><path fill="rgb(37,111,227)" stroke="rgb(37,111,227)" stroke-width="1" opacity="1" d="M 105.5 410 L 108 412.5 L 107.5 413 L 105 410.5 L 105.5 410 Z "/><path fill="rgb(37,111,227)" stroke="rgb(37,111,227)" stroke-width="1" opacity="1" d="M 138.5 411 L 139 411.5 L 137.5 413 L 137 412.5 L 138.5 411 Z "/><path fill="rgb(37,111,227)" stroke="rgb(37,111,227)" stroke-width="1" opacity="1" d="M 109.5 413 L 111 414.5 L 110.5 415 L 109 413.5 L 109.5 413 Z "/><path fill="rgb(37,111,227)" stroke="rgb(37,111,227)" stroke-width="1" opacity="1" d="M 135.5 414 Q 136.5 414.5 135.5 415 Q 134.5 414.5 135.5 414 Z "/><path fill="rgb(37,111,227)" stroke="rgb(37,111,227)" stroke-width="1" opacity="1" d="M 113.5 415 L 115 416.5 L 114.5 417 L 113 415.5 L 113.5 415 Z "/><path fill="rgb(37,111,227)" stroke="rgb(37,111,227)" stroke-width="1" opacity="1" d="M 131.5 415 Q 132.8 414.8 133 415.5 Q 132.8 416.3 131.5 416 Q 130.5 415.5 131.5 415 Z "/><path fill="rgb(37,111,227)" stroke="rgb(37,111,227)" stroke-width="1" opacity="1" d="M 122.5 417 L 124.5 417 L 125 417.5 L 124.5 418 L 122.5 418 Q 121.5 417.5 122.5 417 Z "/><path fill="rgb(36,108,221)" stroke="rgb(36,108,221)" stroke-width="1" opacity="1" d="M 139.5 109 Q 140.8 108.8 141 109.5 Q 140.8 110.3 139.5 110 Q 138.5 109.5 139.5 109 Z "/><path fill="rgb(36,108,221)" stroke="rgb(36,108,221)" stroke-width="1" opacity="1" d="M 379.5 109 Q 380.8 108.8 381 109.5 Q 380.8 110.3 379.5 110 Q 378.5 109.5 379.5 109 Z "/><path fill="rgb(36,108,221)" stroke="rgb(36,108,221)" stroke-width="1" opacity="1" d="M 128.5 111 Q 129.5 111.5 128.5 112 Q 127.5 111.5 128.5 111 Z "/><path fill="rgb(36,108,221)" stroke="rgb(36,108,221)" stroke-width="1" opacity="1" d="M 391.5 111 Q 392.5 111.5 391.5 112 Q 390.5 111.5 391.5 111 Z "/><path fill="rgb(36,108,221)" stroke="rgb(36,108,221)" stroke-width="1" opacity="1" d="M 397.5 113 Q 398.5 113.5 397.5 114 Q 396.5 113.5 397.5 113 Z "/><path fill="rgb(36,108,221)" stroke="rgb(36,108,221)" stroke-width="1" opacity="1" d="M 120.5 114 Q 121.5 114.5 120.5 115 Q 119.5 114.5 120.5 114 Z "/><path fill="rgb(36,108,221)" stroke="rgb(36,108,221)" stroke-width="1" opacity="1" d="M 117.5 116 Q 118.5 116.5 117.5 117 Q 116.5 116.5 117.5 116 Z "/><path fill="rgb(36,108,221)" stroke="rgb(36,108,221)" stroke-width="1" opacity="1" d="M 407.5 120 L 409 121.5 L 408.5 122 L 407 120.5 L 407.5 120 Z "/><path fill="rgb(36,108,221)" stroke="rgb(36,108,221)" stroke-width="1" opacity="1" d="M 416.5 131 Q 417.5 131.5 416.5 132 Q 415.5 131.5 416.5 131 Z "/><path fill="rgb(36,108,221)" stroke="rgb(36,108,221)" stroke-width="1" opacity="1" d="M 101.5 136 Q 102.5 136.5 101.5 137 Q 100.5 136.5 101.5 136 Z "/><path fill="rgb(36,108,221)" stroke="rgb(36,108,221)" stroke-width="1" opacity="1" d="M 136.5 137 Q 137.5 137.5 136.5 138 Q 135.5 137.5 136.5 137 Z "/><path fill="rgb(36,108,221)" stroke="rgb(36,108,221)" stroke-width="1" opacity="1" d="M 387.5 139 Q 388.5 139.5 387.5 140 Q 386.5 139.5 387.5 139 Z "/><path fill="rgb(36,108,221)" stroke="rgb(36,108,221)" stroke-width="1" opacity="1" d="M 419.5 139 Q 420.5 139.5 419.5 140 Q 418.5 139.5 419.5 139 Z "/><path fill="rgb(36,108,221)" stroke="rgb(36,108,221)" stroke-width="1" opacity="1" d="M 130.5 141 Q 131.5 141.5 130.5 142 Q 129.5 141.5 130.5 141 Z "/><path fill="rgb(36,108,221)" stroke="rgb(36,108,221)" stroke-width="1" opacity="1" d="M 126.5 148 L 127 148.5 L 127 150.5 Q 126.5 151.5 126 150.5 L 126 148.5 L 126.5 148 Z "/><path fill="rgb(36,108,221)" stroke="rgb(36,108,221)" stroke-width="1" opacity="1" d="M 421.5 151 Q 422.5 151.5 421.5 152 Q 420.5 151.5 421.5 151 Z "/><path fill="rgb(36,108,221)" stroke="rgb(36,108,221)" stroke-width="1" opacity="1" d="M 267.5 170 Q 268.5 170.5 267.5 171 Q 266.5 170.5 267.5 170 Z "/><path fill="rgb(36,108,221)" stroke="rgb(36,108,221)" stroke-width="1" opacity="1" d="M 251.5 171 L 252 171.5 L 250.5 173 L 250 172.5 L 251.5 171 Z "/><path fill="rgb(36,108,221)" stroke="rgb(36,108,221)" stroke-width="1" opacity="1" d="M 272.5 175 Q 273.5 175.5 272.5 176 Q 271.5 175.5 272.5 175 Z "/><path fill="rgb(36,108,221)" stroke="rgb(36,108,221)" stroke-width="1" opacity="1" d="M 247.5 177 Q 248.5 177.5 247.5 178 Q 246.5 177.5 247.5 177 Z "/><path fill="rgb(36,108,221)" stroke="rgb(36,108,221)" stroke-width="1" opacity="1" d="M 273.5 180 Q 274.5 180.5 273.5 181 Q 272.5 180.5 273.5 180 Z "/><path fill="rgb(36,108,221)" stroke="rgb(36,108,221)" stroke-width="1" opacity="1" d="M 246.5 182 L 247 182.5 L 247 241.5 Q 246.5 242.5 246 241.5 L 246 182.5 L 246.5 182 Z "/><path fill="rgb(36,108,221)" stroke="rgb(36,108,221)" stroke-width="1" opacity="1" d="M 273.5 243 Q 274.5 243.5 273.5 244 Q 272.5 243.5 273.5 243 Z "/><path fill="rgb(36,108,221)" stroke="rgb(36,108,221)" stroke-width="1" opacity="1" d="M 270.5 250 Q 271.5 250.5 270.5 251 Q 269.5 250.5 270.5 250 Z "/><path fill="rgb(36,108,221)" stroke="rgb(36,108,221)" stroke-width="1" opacity="1" d="M 268.5 252 Q 269.5 252.5 268.5 253 Q 267.5 252.5 268.5 252 Z "/><path fill="rgb(36,108,221)" stroke="rgb(36,108,221)" stroke-width="1" opacity="1" d="M 266.5 253 Q 267.5 253.5 266.5 254 Q 265.5 253.5 266.5 253 Z "/><path fill="rgb(36,108,221)" stroke="rgb(36,108,221)" stroke-width="1" opacity="1" d="M 264.5 254 Q 265.5 254.5 264.5 255 Q 263.5 254.5 264.5 254 Z "/><path fill="rgb(36,108,221)" stroke="rgb(36,108,221)" stroke-width="1" opacity="1" d="M 263.5 287 Q 264.5 287.5 263.5 288 Q 262.5 287.5 263.5 287 Z "/><path fill="rgb(36,108,221)" stroke="rgb(36,108,221)" stroke-width="1" opacity="1" d="M 253.5 288 L 254 288.5 L 252.5 290 L 252 289.5 L 253.5 288 Z "/><path fill="rgb(36,108,221)" stroke="rgb(36,108,221)" stroke-width="1" opacity="1" d="M 269.5 290 Q 270.5 290.5 269.5 291 Q 268.5 290.5 269.5 290 Z "/><path fill="rgb(36,108,221)" stroke="rgb(36,108,221)" stroke-width="1" opacity="1" d="M 249.5 292 L 250 292.5 L 248.5 294 L 248 293.5 L 249.5 292 Z "/><path fill="rgb(36,108,221)" stroke="rgb(36,108,221)" stroke-width="1" opacity="1" d="M 246.5 300 Q 247.5 300.5 246.5 301 Q 245.5 300.5 246.5 300 Z "/><path fill="rgb(36,108,221)" stroke="rgb(36,108,221)" stroke-width="1" opacity="1" d="M 273.5 303 Q 274.5 303.5 273.5 304 Q 272.5 303.5 273.5 303 Z "/><path fill="rgb(36,108,221)" stroke="rgb(36,108,221)" stroke-width="1" opacity="1" d="M 247.5 305 Q 248.5 305.5 247.5 306 Q 246.5 305.5 247.5 305 Z "/><path fill="rgb(36,108,221)" stroke="rgb(36,108,221)" stroke-width="1" opacity="1" d="M 269.5 310 L 270 310.5 L 268.5 312 L 268 311.5 L 269.5 310 Z "/><path fill="rgb(36,108,221)" stroke="rgb(36,108,221)" stroke-width="1" opacity="1" d="M 255.5 313 Q 256.5 313.5 255.5 314 Q 254.5 313.5 255.5 313 Z "/><path fill="rgb(36,108,221)" stroke="rgb(36,108,221)" stroke-width="1" opacity="1" d="M 421.5 330 Q 422.3 330.3 422 331.5 Q 421.5 332.5 421 331.5 Q 420.8 330.3 421.5 330 Z "/><path fill="rgb(36,108,221)" stroke="rgb(36,108,221)" stroke-width="1" opacity="1" d="M 393.5 336 Q 394.5 336.5 393.5 337 Q 392.5 336.5 393.5 336 Z "/><path fill="rgb(36,108,221)" stroke="rgb(36,108,221)" stroke-width="1" opacity="1" d="M 390.5 340 Q 391.5 340.5 390.5 341 Q 389.5 340.5 390.5 340 Z "/><path fill="rgb(36,108,221)" stroke="rgb(36,108,221)" stroke-width="1" opacity="1" d="M 379.5 345 Q 380.5 345.5 379.5 346 Q 378.5 345.5 379.5 345 Z "/><path fill="rgb(36,108,221)" stroke="rgb(36,108,221)" stroke-width="1" opacity="1" d="M 183.5 346 Q 184.8 345.8 185 346.5 Q 184.8 347.3 183.5 347 Q 182.5 346.5 183.5 346 Z "/><path fill="rgb(36,108,221)" stroke="rgb(36,108,221)" stroke-width="1" opacity="1" d="M 170.5 348 Q 171.5 348.5 170.5 349 Q 169.5 348.5 170.5 348 Z "/><path fill="rgb(36,108,221)" stroke="rgb(36,108,221)" stroke-width="1" opacity="1" d="M 417.5 348 Q 418.5 348.5 417.5 349 Q 416.5 348.5 417.5 348 Z "/><path fill="rgb(36,108,221)" stroke="rgb(36,108,221)" stroke-width="1" opacity="1" d="M 161.5 352 Q 162.5 352.5 161.5 353 Q 160.5 352.5 161.5 352 Z "/><path fill="rgb(36,108,221)" stroke="rgb(36,108,221)" stroke-width="1" opacity="1" d="M 152.5 359 Q 153.5 359.5 152.5 360 Q 151.5 359.5 152.5 359 Z "/><path fill="rgb(36,108,221)" stroke="rgb(36,108,221)" stroke-width="1" opacity="1" d="M 409.5 360 Q 410.5 360.5 409.5 361 Q 408.5 360.5 409.5 360 Z "/><path fill="rgb(36,108,221)" stroke="rgb(36,108,221)" stroke-width="1" opacity="1" d="M 406.5 363 Q 407.5 363.5 406.5 364 Q 405.5 363.5 406.5 363 Z "/><path fill="rgb(36,108,221)" stroke="rgb(36,108,221)" stroke-width="1" opacity="1" d="M 142.5 369 Q 143.5 369.5 142.5 370 Q 141.5 369.5 142.5 369 Z "/><path fill="rgb(36,108,221)" stroke="rgb(36,108,221)" stroke-width="1" opacity="1" d="M 393.5 370 Q 394.5 370.5 393.5 371 Q 392.5 370.5 393.5 370 Z "/><path fill="rgb(36,108,221)" stroke="rgb(36,108,221)" stroke-width="1" opacity="1" d="M 391.5 371 Q 392.5 371.5 391.5 372 Q 390.5 371.5 391.5 371 Z "/><path fill="rgb(36,108,221)" stroke="rgb(36,108,221)" stroke-width="1" opacity="1" d="M 385.5 372 Q 386.8 371.8 387 372.5 Q 386.8 373.3 385.5 373 Q 384.5 372.5 385.5 372 Z "/><path fill="rgb(36,108,221)" stroke="rgb(36,108,221)" stroke-width="1" opacity="1" d="M 138.5 373 Q 139.5 373.5 138.5 374 Q 137.5 373.5 138.5 373 Z "/><path fill="rgb(36,108,221)" stroke="rgb(36,108,221)" stroke-width="1" opacity="1" d="M 183.5 373 Q 184.5 373.5 183.5 374 Q 182.5 373.5 183.5 373 Z "/><path fill="rgb(36,108,221)" stroke="rgb(36,108,221)" stroke-width="1" opacity="1" d="M 177.5 374 Q 178.5 374.5 177.5 375 Q 176.5 374.5 177.5 374 Z "/><path fill="rgb(36,108,221)" stroke="rgb(36,108,221)" stroke-width="1" opacity="1" d="M 174.5 376 Q 175.5 376.5 174.5 377 Q 173.5 376.5 174.5 376 Z "/><path fill="rgb(36,108,221)" stroke="rgb(36,108,221)" stroke-width="1" opacity="1" d="M 132.5 379 Q 133.5 379.5 132.5 380 Q 131.5 379.5 132.5 379 Z "/><path fill="rgb(36,108,221)" stroke="rgb(36,108,221)" stroke-width="1" opacity="1" d="M 126.5 382 Q 127.5 382.5 126.5 383 Q 125.5 382.5 126.5 382 Z "/><path fill="rgb(36,108,221)" stroke="rgb(36,108,221)" stroke-width="1" opacity="1" d="M 162.5 388 Q 163.5 388.5 162.5 389 Q 161.5 388.5 162.5 388 Z "/><path fill="rgb(36,108,221)" stroke="rgb(36,108,221)" stroke-width="1" opacity="1" d="M 156.5 394 Q 157.5 394.5 156.5 395 Q 155.5 394.5 156.5 394 Z "/><path fill="rgb(36,108,221)" stroke="rgb(36,108,221)" stroke-width="1" opacity="1" d="M 154.5 396 Q 155.5 396.5 154.5 397 Q 153.5 396.5 154.5 396 Z "/><path fill="rgb(36,108,221)" stroke="rgb(36,108,221)" stroke-width="1" opacity="1" d="M 150.5 400 Q 151.5 400.5 150.5 401 Q 149.5 400.5 150.5 400 Z "/><path fill="rgb(36,108,221)" stroke="rgb(36,108,221)" stroke-width="1" opacity="1" d="M 104.5 409 Q 105.5 409.5 104.5 410 Q 103.5 409.5 104.5 409 Z "/><path fill="rgb(36,108,221)" stroke="rgb(36,108,221)" stroke-width="1" opacity="1" d="M 140.5 410 Q 141.5 410.5 140.5 411 Q 139.5 410.5 140.5 410 Z "/><path fill="rgb(36,108,221)" stroke="rgb(36,108,221)" stroke-width="1" opacity="1" d="M 138.5 412 Q 139.5 412.5 138.5 413 Q 137.5 412.5 138.5 412 Z "/><path fill="rgb(36,108,221)" stroke="rgb(36,108,221)" stroke-width="1" opacity="1" d="M 136.5 413 Q 137.5 413.5 136.5 414 Q 135.5 413.5 136.5 413 Z "/><path fill="rgb(36,108,221)" stroke="rgb(36,108,221)" stroke-width="1" opacity="1" d="M 131.5 416 Q 132.5 416.5 131.5 417 Q 130.5 416.5 131.5 416 Z "/><path fill="rgb(36,108,221)" stroke="rgb(36,108,221)" stroke-width="1" opacity="1" d="M 121.5 417 Q 122.5 417.5 121.5 418 Q 120.5 417.5 121.5 417 Z "/><path fill="rgb(36,108,221)" stroke="rgb(36,108,221)" stroke-width="1" opacity="1" d="M 125.5 417 Q 126.5 417.5 125.5 418 Q 124.5 417.5 125.5 417 Z "/><path fill="rgb(42,125,253)" stroke="rgb(42,125,253)" stroke-width="1" opacity="1" d="M 132.5 110 Q 133.8 110 134 110 L 134 110.5 Q 134 111.8 134 112 L 133.5 112 L 131.5 112 L 131 111.5 L 132.5 110 Z "/><path fill="rgb(42,125,253)" stroke="rgb(42,125,253)" stroke-width="1" opacity="1" d="M 386 110 Q 386.3 110 387.5 110 L 389 111.5 L 388.5 112 L 386.5 112 L 386 112 L 386 111.5 Q 386 110.3 386 110 Z "/><path fill="rgb(42,125,253)" stroke="rgb(42,125,253)" stroke-width="1" opacity="1" d="M 125.5 112 L 126 112.5 Q 126 113.8 126 114 Q 125.8 114 124.5 114 L 124 113.5 L 125.5 112 Z "/><path fill="rgb(42,125,253)" stroke="rgb(42,125,253)" stroke-width="1" opacity="1" d="M 394.5 112 L 396 113.5 L 395.5 114 Q 394.3 114 394 114 Q 394 113.8 394 112.5 L 394.5 112 Z "/><path fill="rgb(42,125,253)" stroke="rgb(42,125,253)" stroke-width="1" opacity="1" d="M 398.5 114 L 400 115.5 L 399.5 116 Q 398.3 116 398 116 Q 398 115.8 398 114.5 L 398.5 114 Z "/><path fill="rgb(42,125,253)" stroke="rgb(42,125,253)" stroke-width="1" opacity="1" d="M 120.5 115 Q 121.8 114.8 122 115.5 Q 121.8 116.3 120.5 116 Q 119.5 115.5 120.5 115 Z "/><path fill="rgb(42,125,253)" stroke="rgb(42,125,253)" stroke-width="1" opacity="1" d="M 118.5 116 L 119 116.5 L 117.5 118 L 117 117.5 L 118.5 116 Z "/><path fill="rgb(42,125,253)" stroke="rgb(42,125,253)" stroke-width="1" opacity="1" d="M 401.5 116 L 403 117.5 L 402.5 118 L 401 116.5 L 401.5 116 Z "/><path fill="rgb(42,125,253)" stroke="rgb(42,125,253)" stroke-width="1" opacity="1" d="M 404.5 118 Q 405.3 118.3 405 119.5 Q 404.5 120.5 404 119.5 Q 403.8 118.3 404.5 118 Z "/><path fill="rgb(42,125,253)" stroke="rgb(42,125,253)" stroke-width="1" opacity="1" d="M 115.5 119 Q 116.5 119.5 115.5 120 Q 114.5 119.5 115.5 119 Z "/><path fill="rgb(42,125,253)" stroke="rgb(42,125,253)" stroke-width="1" opacity="1" d="M 113.5 120 Q 114.3 120.3 114 121.5 Q 113.5 122.5 113 121.5 Q 112.8 120.3 113.5 120 Z "/><path fill="rgb(42,125,253)" stroke="rgb(42,125,253)" stroke-width="1" opacity="1" d="M 406.5 120 Q 407.3 120.3 407 121.5 Q 406.5 122.5 406 121.5 Q 405.8 120.3 406.5 120 Z "/><path fill="rgb(42,125,253)" stroke="rgb(42,125,253)" stroke-width="1" opacity="1" d="M 111.5 122 Q 112.3 122.3 112 123.5 Q 111.5 124.5 111 123.5 Q 110.8 122.3 111.5 122 Z "/><path fill="rgb(42,125,253)" stroke="rgb(42,125,253)" stroke-width="1" opacity="1" d="M 408.5 122 L 411 124.5 Q 411 125.8 411 126 L 411.5 126 Q 412.8 126 413 126 L 413 126.5 Q 413 127.8 413 128 L 413.5 128 Q 414.8 128 415 128 L 415 128.5 L 415 131.5 L 415 132 Q 415.3 132 416.5 132 Q 417.5 132.5 416.5 133 L 414.5 133 L 414 133 L 414 132.5 L 414 129.5 L 414 129 L 413.5 129 Q 412.3 129 412 129 Q 412 128.8 412 127.5 L 412 127 L 411.5 127 Q 410.3 127 410 127 L 410 126.5 L 410 124.5 L 410 124 L 409.5 124 Q 408.3 124 408 124 Q 408 123.8 408 122.5 L 408.5 122 Z "/><path fill="rgb(42,125,253)" stroke="rgb(42,125,253)" stroke-width="1" opacity="1" d="M 109.5 125 L 110 125.5 Q 110 126.8 110 127 L 109.5 127 Q 108.3 127 108 127 L 108 127.5 Q 108 128.8 108 129 Q 107.8 129 106.5 129 L 106 128.5 L 109.5 125 Z "/><path fill="rgb(42,125,253)" stroke="rgb(42,125,253)" stroke-width="1" opacity="1" d="M 105.5 131 L 106 131.5 Q 106 132.8 106 133 Q 105.8 133 104.5 133 L 104 132.5 L 105.5 131 Z "/><path fill="rgb(42,125,253)" stroke="rgb(42,125,253)" stroke-width="1" opacity="1" d="M 103.5 134 L 104 134.5 L 104 136.5 L 104 137 L 103.5 137 Q 102.3 137 102 137 Q 102 136.8 102 135.5 L 103.5 134 Z "/><path fill="rgb(42,125,253)" stroke="rgb(42,125,253)" stroke-width="1" opacity="1" d="M 417.5 135 L 419 136.5 L 418.5 137 Q 417.3 137 417 137 Q 417 136.8 417 135.5 L 417.5 135 Z "/><path fill="rgb(42,125,253)" stroke="rgb(42,125,253)" stroke-width="1" opacity="1" d="M 134 136 L 134.5 136 L 385.5 136 L 386 136 L 386 136.5 Q 386 137.8 386 138 L 386.5 138 L 389.5 138 L 390 138 L 390 138.5 Q 390 139.8 390 140 L 390.5 140 Q 391.8 140 392 140 Q 392 140.3 392 141.5 L 391.5 142 L 390.5 141 L 389.5 141 L 387.5 139 L 386.5 139 L 384.5 137 L 135.5 137 L 133.5 139 L 132.5 139 L 129 142.5 L 129 143.5 L 126.5 146 Q 125.8 145.8 126 144.5 L 128 142.5 L 128 140.5 L 128 140 L 128.5 140 Q 129.8 140 130 140 L 130 139.5 Q 130 138.3 130 138 L 130.5 138 L 133.5 138 L 134 138 L 134 137.5 Q 134 136.3 134 136 Z "/><path fill="rgb(42,125,253)" stroke="rgb(42,125,253)" stroke-width="1" opacity="1" d="M 101.5 139 L 102 139.5 L 102 142.5 L 102 143 L 101.5 143 Q 100.3 143 100 143 Q 100 142.8 100 141.5 L 101 140.5 Q 100.8 139.3 101.5 139 Z "/><path fill="rgb(42,125,253)" stroke="rgb(42,125,253)" stroke-width="1" opacity="1" d="M 419.5 141 L 421 142.5 L 420.5 143 Q 419.3 143 419 143 Q 419 142.8 419 141.5 L 419.5 141 Z "/><path fill="rgb(42,125,253)" stroke="rgb(42,125,253)" stroke-width="1" opacity="1" d="M 392.5 143 L 393.5 144 Q 394.8 144 395 144 L 395 144.5 L 395 149.5 L 397 151.5 L 397 333.5 L 397 334 L 396.5 334 Q 395.3 334 395 334 L 395 334.5 L 395 338.5 L 395 339 Q 394.8 339 393.5 339 L 393 338.5 L 394 337.5 L 394 330.5 L 395 329.5 L 395 152.5 L 394 151.5 L 394 145.5 L 394 145 L 393.5 145 Q 392.3 145 392 145 Q 392 144.8 392 143.5 L 392.5 143 Z "/><path fill="rgb(42,125,253)" stroke="rgb(42,125,253)" stroke-width="1" opacity="1" d="M 99.5 150 L 100 150.5 L 100 395.5 Q 99.5 396.5 99 395.5 L 99 150.5 L 99.5 150 Z "/><path fill="rgb(42,125,253)" stroke="rgb(42,125,253)" stroke-width="1" opacity="1" d="M 125.5 150 Q 126.3 150.3 126 151.5 L 125 152.5 L 125 381.5 L 127 383.5 L 126.5 384 L 124.5 384 Q 123.8 384.3 124 383.5 L 124 151.5 L 125.5 150 Z "/><path fill="rgb(42,125,253)" stroke="rgb(42,125,253)" stroke-width="1" opacity="1" d="M 256.5 169 Q 257.8 169 258 169 L 258 169.5 Q 258 170.8 258 171 L 257.5 171 L 255.5 171 L 255 170.5 L 256.5 169 Z "/><path fill="rgb(42,125,253)" stroke="rgb(42,125,253)" stroke-width="1" opacity="1" d="M 262 169 L 262.5 169 L 264.5 169 L 266.5 171 L 268.5 171 L 269 171 L 269 171.5 Q 269 172.8 269 173 L 268.5 173 L 266.5 173 L 266 173 L 266 172.5 Q 266 171.3 266 171 L 265.5 171 L 262.5 171 L 262 171 L 262 170.5 Q 262 169.3 262 169 Z "/><path fill="rgb(42,125,253)" stroke="rgb(42,125,253)" stroke-width="1" opacity="1" d="M 252.5 171 Q 253.8 171 254 171 L 254 171.5 Q 254 172.8 254 173 L 253.5 173 L 251.5 173 L 251 172.5 L 252.5 171 Z "/><path fill="rgb(42,125,253)" stroke="rgb(42,125,253)" stroke-width="1" opacity="1" d="M 270.5 173 L 271 173.5 L 271 175.5 L 273 177.5 L 273 246.5 L 271 248.5 L 271 249.5 L 268.5 252 L 268 251.5 Q 268 250.3 268 250 L 268.5 250 Q 269.8 250 270 250 L 270 249.5 L 270 246.5 L 270 246 L 270.5 246 Q 271.8 246 272 246 L 272 245.5 L 272 177.5 L 272 177 L 271.5 177 Q 270.3 177 270 177 L 270 176.5 L 270 173.5 L 270.5 173 Z "/><path fill="rgb(42,125,253)" stroke="rgb(42,125,253)" stroke-width="1" opacity="1" d="M 249.5 175 L 250 175.5 Q 250 176.8 250 177 Q 249.8 177 248.5 177 L 248 176.5 L 249.5 175 Z "/><path fill="rgb(42,125,253)" stroke="rgb(42,125,253)" stroke-width="1" opacity="1" d="M 247.5 181 L 248 181.5 L 248 242.5 Q 247.5 243.5 247 242.5 L 247 181.5 L 247.5 181 Z "/><path fill="rgb(42,125,253)" stroke="rgb(42,125,253)" stroke-width="1" opacity="1" d="M 248 246 L 248.5 246 Q 249.8 246 250 246 L 250 246.5 L 250 248.5 L 249.5 249 L 248 247.5 Q 248 246.3 248 246 Z "/><path fill="rgb(42,125,253)" stroke="rgb(42,125,253)" stroke-width="1" opacity="1" d="M 251.5 250 Q 252.5 250.5 251.5 251 Q 250.5 250.5 251.5 250 Z "/><path fill="rgb(42,125,253)" stroke="rgb(42,125,253)" stroke-width="1" opacity="1" d="M 253.5 252 L 255.5 252 L 256 252 Q 256 252.3 256 253.5 L 255.5 254 L 254.5 253 Q 253.3 253.3 253 252.5 L 253.5 252 Z "/><path fill="rgb(42,125,253)" stroke="rgb(42,125,253)" stroke-width="1" opacity="1" d="M 264 252 L 264.5 252 L 266.5 252 L 267 252.5 Q 266.8 253.3 265.5 253 L 264.5 254 L 264 253.5 Q 264 252.3 264 252 Z "/><path fill="rgb(42,125,253)" stroke="rgb(42,125,253)" stroke-width="1" opacity="1" d="M 259.5 287 L 260.5 287 L 261.5 288 L 265.5 288 L 267.5 290 L 268.5 290 L 271 292.5 L 271 293.5 L 273 295.5 L 273 306.5 Q 272.5 307.5 272 306.5 L 272 295.5 L 272 295 L 271.5 295 Q 270.3 295 270 295 L 270 294.5 Q 270 293.3 270 293 L 269.5 293 Q 268.3 293 268 293 L 268 292.5 Q 268 291.3 268 291 L 267.5 291 Q 266.3 291 266 291 L 266 290.5 Q 266 289.3 266 289 L 265.5 289 L 254.5 289 L 254 289 L 254 289.5 Q 254 290.8 254 291 L 253.5 291 Q 252.3 291 252 291 L 252 291.5 Q 252 292.8 252 293 Q 251.8 293 250.5 293 L 250 292.5 L 254.5 288 L 258.5 288 L 259.5 287 Z "/><path fill="rgb(42,125,253)" stroke="rgb(42,125,253)" stroke-width="1" opacity="1" d="M 248.5 294 Q 249.8 293.8 250 294.5 Q 249.8 295.3 248.5 295 Q 247.5 294.5 248.5 294 Z "/><path fill="rgb(42,125,253)" stroke="rgb(42,125,253)" stroke-width="1" opacity="1" d="M 247.5 299 L 248 299.5 L 248 301.5 Q 247.5 302.5 247 301.5 L 247 299.5 L 247.5 299 Z "/><path fill="rgb(42,125,253)" stroke="rgb(42,125,253)" stroke-width="1" opacity="1" d="M 249.5 307 Q 250.5 307.5 249.5 308 Q 248.5 307.5 249.5 307 Z "/><path fill="rgb(42,125,253)" stroke="rgb(42,125,253)" stroke-width="1" opacity="1" d="M 270.5 307 Q 271.3 307.3 271 308.5 L 268.5 311 L 268 310.5 Q 268 309.3 268 309 L 268.5 309 Q 269.8 309 270 309 Q 270 308.8 270 307.5 L 270.5 307 Z "/><path fill="rgb(42,125,253)" stroke="rgb(42,125,253)" stroke-width="1" opacity="1" d="M 251.5 309 Q 252.5 309.5 251.5 310 Q 250.5 309.5 251.5 309 Z "/><path fill="rgb(42,125,253)" stroke="rgb(42,125,253)" stroke-width="1" opacity="1" d="M 253.5 311 L 254.5 311 L 256 312.5 Q 255.8 313.3 254.5 313 L 253 311.5 L 253.5 311 Z "/><path fill="rgb(42,125,253)" stroke="rgb(42,125,253)" stroke-width="1" opacity="1" d="M 266.5 311 Q 267.3 311.3 267 312.5 Q 266.5 313.5 266 312.5 Q 265.8 311.3 266.5 311 Z "/><path fill="rgb(42,125,253)" stroke="rgb(42,125,253)" stroke-width="1" opacity="1" d="M 419 339 L 419.5 339 Q 420.8 339 421 339 Q 421 339.3 421 340.5 L 419.5 342 L 419 341.5 L 419 339.5 L 419 339 Z "/><path fill="rgb(42,125,253)" stroke="rgb(42,125,253)" stroke-width="1" opacity="1" d="M 391.5 340 L 392 340.5 Q 392 341.8 392 342 L 391.5 342 Q 390.3 342 390 342 L 390 342.5 Q 390 343.8 390 344 L 389.5 344 Q 388.3 344 388 344 L 388 344.5 Q 388 345.8 388 346 L 387.5 346 L 382.5 346 L 382 346 L 382 346.5 Q 382 347.8 382 348 L 381.5 348 L 173.5 348 L 173 348 L 173 348.5 Q 173 349.8 173 350 L 172.5 350 L 167.5 350 L 167 350 L 167 350.5 Q 167 351.8 167 352 L 166.5 352 L 163.5 352 L 163 352 L 163 352.5 Q 163 353.8 163 354 L 162.5 354 Q 161.3 354 161 354 L 161 354.5 Q 161 355.8 161 356 L 160.5 356 L 158.5 356 L 156.5 358 Q 155.3 358 155 358 L 155 358.5 Q 155 359.8 155 360 L 154.5 360 Q 153.3 360 153 360 L 153 360.5 Q 153 361.8 153 362 L 152.5 362 Q 151.3 362 151 362 L 151 362.5 Q 151 363.8 151 364 L 150.5 364 Q 149.3 364 149 364 L 149 364.5 Q 149 365.8 149 366 L 148.5 366 Q 147.3 366 147 366 L 147 366.5 Q 147 367.8 147 368 L 146.5 368 Q 145.3 368 145 368 Q 145 368.3 145 369.5 Q 144.5 370.5 144 369.5 L 144 368.5 L 156.5 356 L 157.5 356 L 160.5 353 L 161.5 353 L 163.5 351 L 165.5 351 L 166 351 L 166 350.5 Q 166 349.3 166 349 L 166.5 349 L 171.5 349 L 173.5 347 L 378.5 347 L 379.5 346 L 381.5 346 L 382.5 345 L 385.5 345 L 386 345 L 386 344.5 Q 386 343.3 386 343 L 386.5 343 L 388.5 343 L 391.5 340 Z "/><path fill="rgb(42,125,253)" stroke="rgb(42,125,253)" stroke-width="1" opacity="1" d="M 417 345 L 417.5 345 Q 418.8 345 419 345 Q 419 345.3 419 346.5 L 417.5 348 L 417 347.5 L 417 345.5 L 417 345 Z "/><path fill="rgb(42,125,253)" stroke="rgb(42,125,253)" stroke-width="1" opacity="1" d="M 414 349 L 414.5 349 L 416.5 349 L 417 349 Q 417 349.3 417 350.5 L 415 352.5 L 415 353.5 L 412 356.5 L 412 357.5 L 409 360.5 Q 409 361.8 409 362 Q 408.8 362 407.5 362 L 405.5 364 L 404.5 364 L 402.5 366 L 402 365.5 L 402 363.5 L 402 363 L 402.5 363 Q 403.8 363 404 363 L 404 362.5 Q 404 361.3 404 361 L 404.5 361 L 407.5 361 L 408 361 L 408 360.5 L 408 358.5 L 408 358 L 408.5 358 Q 409.8 358 410 358 L 410 357.5 Q 410 356.3 410 356 L 410.5 356 Q 411.8 356 412 356 L 412 355.5 L 412 353.5 L 412 353 L 412.5 353 Q 413.8 353 414 353 L 414 352.5 L 414 349.5 L 414 349 Z "/><path fill="rgb(42,125,253)" stroke="rgb(42,125,253)" stroke-width="1" opacity="1" d="M 398 366 L 398.5 366 L 400.5 366 L 401 366.5 L 399.5 368 Q 398.3 368 398 368 L 398 367.5 Q 398 366.3 398 366 Z "/><path fill="rgb(42,125,253)" stroke="rgb(42,125,253)" stroke-width="1" opacity="1" d="M 396.5 368 L 397 368.5 Q 397 369.8 397 370 Q 396.8 370 395.5 370 L 395 369.5 L 396.5 368 Z "/><path fill="rgb(42,125,253)" stroke="rgb(42,125,253)" stroke-width="1" opacity="1" d="M 142.5 370 L 143 370.5 Q 143 371.8 143 372 Q 142.8 372 141.5 372 L 141 371.5 L 142.5 370 Z "/><path fill="rgb(42,125,253)" stroke="rgb(42,125,253)" stroke-width="1" opacity="1" d="M 390 370 Q 390.3 370 391.5 370 L 392 370.5 L 390.5 372 L 390 371.5 Q 390 370.3 390 370 Z "/><path fill="rgb(42,125,253)" stroke="rgb(42,125,253)" stroke-width="1" opacity="1" d="M 181 372 Q 181.3 372 182.5 372 L 183 372.5 L 181.5 374 L 181 373.5 Q 181 372.3 181 372 Z "/><path fill="rgb(42,125,253)" stroke="rgb(42,125,253)" stroke-width="1" opacity="1" d="M 175.5 374 Q 176.5 374.5 175.5 375 Q 174.5 374.5 175.5 374 Z "/><path fill="rgb(42,125,253)" stroke="rgb(42,125,253)" stroke-width="1" opacity="1" d="M 171 376 L 171.5 376 Q 172.8 376 173 376 L 173 376.5 Q 173 377.8 173 378 L 172.5 378 Q 171.3 378 171 378 L 171 378.5 Q 171 379.8 171 380 L 170.5 380 Q 169.3 380 169 380 L 169 380.5 Q 169 381.8 169 382 L 168.5 382 Q 167.3 382 167 382 L 167 382.5 Q 167 383.8 167 384 L 166.5 384 Q 165.3 384 165 384 L 165 384.5 Q 165 385.8 165 386 L 164.5 386 Q 163.3 386 163 386 L 163 386.5 Q 163 387.8 163 388 L 162.5 388 Q 161.3 388 161 388 L 161 388.5 Q 161 389.8 161 390 L 160.5 390 Q 159.3 390 159 390 L 159 390.5 Q 159 391.8 159 392 L 158.5 392 Q 157.3 392 157 392 L 157 392.5 Q 157 393.8 157 394 L 156.5 394 Q 155.3 394 155 394 L 155 394.5 Q 155 395.8 155 396 L 154.5 396 Q 153.3 396 153 396 L 153 396.5 Q 153 397.8 153 398 L 152.5 398 Q 151.3 398 151 398 L 151 398.5 Q 151 399.8 151 400 L 150.5 400 Q 149.3 400 149 400 Q 149 400.3 149 401.5 L 139.5 411 L 138.5 411 L 134.5 415 L 131.5 415 L 131 415 L 131 415.5 Q 131 416.8 131 417 L 130.5 417 L 115.5 417 L 113.5 415 L 111.5 415 L 109.5 413 L 108.5 413 L 102 406.5 L 102.5 406 Q 103.8 406 104 406 L 104 406.5 Q 104 407.8 104 408 L 104.5 408 Q 105.8 408 106 408 L 106 408.5 Q 106 409.8 106 410 L 106.5 410 Q 107.8 410 108 410 L 108 410.5 Q 108 411.8 108 412 L 108.5 412 L 111.5 412 L 112 412 L 112 412.5 Q 112 413.8 112 414 L 112.5 414 L 115.5 414 L 116 414 L 116 414.5 Q 116 415.8 116 416 L 116.5 416 L 129.5 416 L 130 416 L 130 415.5 Q 130 414.3 130 414 L 130.5 414 L 133.5 414 L 134 414 L 134 413.5 Q 134 412.3 134 412 L 134.5 412 Q 135.8 412 136 412 L 136 411.5 Q 136 410.3 136 410 L 136.5 410 Q 137.8 410 138 410 L 138 409.5 Q 138 408.3 138 408 L 138.5 408 Q 139.8 408 140 408 L 140 407.5 Q 140 406.3 140 406 L 140.5 406 Q 141.8 406 142 406 L 142 405.5 Q 142 404.3 142 404 L 142.5 404 Q 143.8 404 144 404 L 144 403.5 Q 144 402.3 144 402 L 144.5 402 Q 145.8 402 146 402 L 146 401.5 Q 146 400.3 146 400 L 146.5 400 Q 147.8 400 148 400 L 148 399.5 Q 148 398.3 148 398 L 148.5 398 Q 149.8 398 150 398 L 150 397.5 Q 150 396.3 150 396 L 150.5 396 Q 151.8 396 152 396 L 152 395.5 Q 152 394.3 152 394 L 152.5 394 Q 153.8 394 154 394 L 154 393.5 Q 154 392.3 154 392 L 154.5 392 Q 155.8 392 156 392 L 156 391.5 Q 156 390.3 156 390 L 156.5 390 Q 157.8 390 158 390 L 158 389.5 Q 158 388.3 158 388 L 158.5 388 Q 159.8 388 160 388 L 160 387.5 Q 160 386.3 160 386 L 160.5 386 Q 161.8 386 162 386 L 162 385.5 Q 162 384.3 162 384 L 162.5 384 Q 163.8 384 164 384 L 164 383.5 Q 164 382.3 164 382 L 164.5 382 L 166.5 382 L 167 382 L 167 381.5 Q 167 380.3 167 380 L 167.5 380 Q 168.8 380 169 380 L 169 379.5 Q 169 378.3 169 378 L 169.5 378 Q 170.8 378 171 378 L 171 377.5 Q 171 376.3 171 376 Z "/><path fill="rgb(42,125,253)" stroke="rgb(42,125,253)" stroke-width="1" opacity="1" d="M 135.5 377 Q 136.5 377.5 135.5 378 Q 134.5 377.5 135.5 377 Z "/><path fill="rgb(42,125,253)" stroke="rgb(42,125,253)" stroke-width="1" opacity="1" d="M 131.5 381 Q 132.5 381.5 131.5 382 Q 130.5 381.5 131.5 381 Z "/><path fill="rgb(42,125,253)" stroke="rgb(42,125,253)" stroke-width="1" opacity="1" d="M 100 400 L 100.5 400 Q 101.8 400 102 400 L 102 400.5 L 102 403.5 L 101.5 404 L 100 402.5 L 100 400.5 L 100 400 Z "/></svg>